<svg xmlns="http://www.w3.org/2000/svg" width="755" height="149" fill="none">
  <path fill="#000" d="M223 10h31l3 1 1 3v101l-1 3-3 1h-31l-3-1-1-3V81h-26v34l-1 3-3 1h-30l-3-1-2-3V14l2-3 3-1h30l3 1 1 3v33h26V14l1-3 3-1Z"/>
  <path fill="#000" d="M257 38h27c2 0 4 1 5 4l13 35 13-35c1-3 3-4 5-4h26l3 1 1 2v2l-44 102c-1 3-3 4-6 4h-26l-2-1-1-2v-2l13-30-31-71v-1c1-3 2-4 4-4Z"/>
  <path fill="#000" d="M434 72v13c0 11-4 20-10 27-6 6-14 9-23 9s-16-3-21-8v32l-2 3-3 1h-29l-3-1-1-3V42l1-3 3-1h27l3 1 1 3v5c6-7 13-11 23-11s18 3 24 9 10 15 10 27Zm-54 1v12c0 5 2 8 7 8 6 0 8-3 8-9V73c0-6-2-9-8-9-5 0-7 3-7 9Z"/>
  <path fill="#000" d="M512 88h-46v1c0 6 2 9 6 9l4-2 5-3h30c2 0 4 1 4 4 0 5-4 10-12 16-8 5-18 8-31 8s-24-4-32-10c-9-7-13-17-13-29v-7c0-12 5-21 13-28s20-11 33-11c14 0 25 4 32 12 8 8 12 18 12 31v5l-2 2c-1 1-1 2-3 2Zm-34-20c0-7-2-10-6-10s-6 3-6 10h12Z"/>
  <path fill="#000" d="M547 42v5c7-6 15-9 24-9h8l3 1 1 3v24l-1 3-3 2h-20c-3 0-5 0-7 2-2 1-3 3-3 5v37l-1 3-3 1h-30l-3-1-1-3V42l1-3 3-1h28l3 1 1 3Zm98 77h-32l-3-1-1-3V14l1-3 3-1h32l3 1 1 3v101l-1 3-3 1Zm12-109h45c15 0 28 3 37 11 10 8 15 18 15 32v23c0 14-4 25-14 32-10 8-22 11-38 11h-45l-3-1-1-3V14l1-3 3-1Zm35 30v49h10c3 0 6-1 8-3 3-3 4-6 4-10V53c0-9-4-13-12-13h-10Z"/>
  <path fill="#FFC700" stroke="#000" stroke-width="4" d="M126 64A62 62 0 1 1 2 64a62 62 0 0 1 124 0Zm-32 0a30 30 0 1 1-60 0 30 30 0 0 1 60 0ZM64 98a34 34 0 1 0 0-68 34 34 0 0 0 0 68Z"/>
</svg>
